<?xml version="1.0" encoding="UTF-8"?><svg id="text" xmlns="http://www.w3.org/2000/svg" viewBox="0 0 106.41 106.4"><defs><style>.cls-1{fill:#0073bd;}.cls-2{fill:#fff;}.cls-3{fill:#30baed;}</style></defs><path class="cls-3" d="m90.05,39.6l-13.26-2.34-6.87,38.98,13.26,2.34c10.76,1.9,21.03-5.29,22.92-16.05,1.9-10.76-5.29-21.03-16.05-22.92h0Z"/><path class="cls-3" d="m30.16,69.91l-2.34,13.26c-1.9,10.76,5.29,21.03,16.05,22.92,10.76,1.9,21.03-5.29,22.92-16.05l2.34-13.26h0l-38.98-6.87h.01Z"/><rect class="cls-2" x="53.24" y="56.36" width="39.58" height=".67" transform="translate(4.51 118.77) rotate(-80)"/><rect class="cls-2" x="49.38" y="53.23" width=".67" height="39.58" transform="translate(-30.83 109.3) rotate(-80)"/><path class="cls-1" d="m62.53.3c-10.76-1.9-21.03,5.29-22.92,16.05l-2.46,13.93-13.93-2.46C12.46,25.92,2.19,33.11.3,43.87c-1.9,10.76,5.29,21.03,16.05,22.92l52.9,9.33,9.33-52.9c1.9-10.76-5.29-21.03-16.05-22.92Z"/><g><path class="cls-2" d="m33.98,35.8c.16-.92.88-1.32,1.76-1.17l3.67.65c1.99.35,3.35,1.97,3,3.99-.24,1.34-.95,2.14-2.27,2.49v.04c1.58.52,2.62,2.1,2.32,3.76-.47,2.69-2.53,3.83-5.16,3.36l-3.93-.69c-.88-.15-1.43-.82-1.27-1.72l1.89-10.71h-.01Zm2.17,4.46l1.49.26c.94.16,1.64-.28,1.81-1.24.16-.9-.47-1.48-1.31-1.63l-1.49-.26-.51,2.86h.01Zm-1,5.7l2.25.4c1.03.18,1.9-.28,2.09-1.34.16-.9-.42-1.63-1.76-1.87l-2.02-.36-.56,3.17Z"/><path class="cls-2" d="m44.55,37.61c.17-.95.87-1.38,1.69-1.24s1.34.79,1.17,1.74l-1.69,9.59,3.4.6c.97.17,1.27.97,1.13,1.62-.15.62-.76,1.17-1.6,1.02l-4.77-.84c-.94-.16-1.38-.87-1.21-1.83l1.88-10.66h0Z"/><path class="cls-2" d="m51.91,38.91c.17-.95.87-1.38,1.69-1.24s1.34.79,1.17,1.74l-1.18,6.66c-.31,1.76.57,3.35,2.39,3.67s3.18-.96,3.48-2.64l1.18-6.66c.17-.95.87-1.38,1.69-1.24s1.34.79,1.17,1.74l-1.2,6.82c-.57,3.21-3.63,5.17-6.78,4.61-3.19-.56-5.38-3.41-4.81-6.66l1.2-6.82v.02Z"/><path class="cls-2" d="m64.66,41.45c.17-.95.77-1.58,1.78-1.4l4.74.84c.92.16,1.24.89,1.12,1.56s-.69,1.24-1.59,1.08l-3.36-.59-.49,2.79,3.13.55c.94.16,1.28.9,1.16,1.56s-.71,1.23-1.63,1.07l-3.13-.55-.51,2.9,3.53.62c.92.16,1.24.89,1.12,1.56-.11.65-.69,1.24-1.59,1.08l-4.93-.87c-.84-.15-1.37-.83-1.22-1.69l1.85-10.5h.02Z"/><path class="cls-2" d="m21.51,48.69c1.39.25,4.03,1.18,3.73,2.86-.12.69-.7,1.2-1.41,1.07-.78-.14-1.2-.9-2.8-1.18-2.37-.42-3.94,1.37-4.35,3.7-.4,2.27.5,4.44,2.85,4.85,1.6.28,2.39-.4,3.18-.27.86.15,1.11,1.08,1.03,1.52-.32,1.83-3.28,1.74-4.69,1.5-3.88-.68-6.03-4.23-5.33-8.19.7-3.97,3.91-6.56,7.81-5.87h-.02Z"/><path class="cls-2" d="m26.44,51.33c.16-.92.78-1.4,1.73-1.23l3.36.59c2.94.52,4.52,2.16,3.99,5.15-.37,2.1-2.17,3.02-4.17,2.99l2.63,4.05c.22.33.28.64.23.91-.13.74-.85,1.37-1.69,1.22-.34-.06-.78-.28-1.02-.69l-3.33-5.88h-.04l-.73,4.14c-.17.95-.87,1.38-1.69,1.24s-1.34-.79-1.17-1.74l1.89-10.73v-.02Zm2.08,5.03l1.97.35c1.05.19,1.89-.32,2.08-1.39s-.43-1.81-1.48-1.99l-1.97-.35-.6,3.38h0Z"/><path class="cls-2" d="m35.69,58.44c.7-3.97,3.91-6.56,7.81-5.87s6.01,4.31,5.33,8.19c-.7,3.95-3.89,6.56-7.81,5.87-3.88-.68-6.03-4.23-5.33-8.19Zm10.16,1.79c.41-2.31-.43-4.6-2.82-5.03-2.39-.42-3.96,1.45-4.36,3.76s.39,4.6,2.82,5.03,3.95-1.43,4.36-3.76Z"/><path class="cls-2" d="m58.81,57.24c-.13.74-.75,1.33-1.53,1.19s-1.29-.82-2.44-1.02c-.82-.14-1.64.16-1.78.97-.35,1.97,6.25,1.83,5.38,6.76-.48,2.73-3.03,4.03-5.67,3.57-1.47-.26-4.58-1.16-4.26-2.96.13-.74.74-1.27,1.52-1.13.9.16,1.84,1.09,3.08,1.31,1.26.22,2.07-.36,2.24-1.3.4-2.25-6.22-2.02-5.44-6.45.47-2.67,2.96-3.95,5.5-3.5,1.07.19,3.67,1.06,3.41,2.57h0Z"/><path class="cls-2" d="m68.41,58.93c-.13.74-.75,1.33-1.53,1.19s-1.29-.82-2.44-1.02c-.82-.14-1.64.16-1.78.97-.35,1.97,6.25,1.83,5.38,6.76-.48,2.73-3.03,4.03-5.67,3.57-1.47-.26-4.58-1.16-4.26-2.96.13-.74.74-1.27,1.52-1.13.9.16,1.84,1.09,3.08,1.31s2.07-.36,2.24-1.3c.4-2.25-6.22-2.02-5.44-6.45.47-2.67,2.96-3.95,5.5-3.5,1.07.19,3.67,1.06,3.41,2.57h0Z"/></g></svg>